<?xml version="1.0" encoding="utf-8"?>
<!-- Generator: Adobe Illustrator 19.0.0, SVG Export Plug-In . SVG Version: 6.00 Build 0)  -->
<svg version="1.1" id="Camada_1" xmlns="http://www.w3.org/2000/svg" xmlns:xlink="http://www.w3.org/1999/xlink" x="0px" y="0px"
	 viewBox="0 0 89 101" style="enable-background:new 0 0 89 101;" xml:space="preserve">
<style type="text/css">
	.st0{fill:#E3388C;}
	.st1{fill:#FFFFFF;}
</style>
<g>
	<path id="XMLID_4_" class="st0" d="M88.6,44c0,16.9-9.6,31.5-23.7,38.9c-6.2,3.2-21.2,17.9-21.2,17.9s-14.1-14.7-20.3-18
		C9.5,75.4,0,60.8,0,44C0,19.7,19.8,0,44.3,0C68.8,0,88.6,19.7,88.6,44z"/>
	<g>
		<path id="XMLID_3_" class="st1" d="M43.3,63.2C36.6,56.4,21.8,62,21.8,62V25H21c-2.4,0-2.4-0.1-2.4,2.8v33.9
			c0,1.6,1.1,2.9,2.4,2.9l19.8-0.1c0,0,0.9,1,1.3,1.3c1.4,0.9,3.8,0.9,5.3,0c0.5-0.3,1.3-1.3,1.3-1.3l20.9,0.1
			c1.3,0,2.4-1.3,2.4-2.9V27.8c0-2.9,0.1-2.8-2.3-2.8h-0.9v36.7c0,0-16-5.4-22.7,1.4"/>
		<g>
			<path id="XMLID_2_" class="st1" d="M44,61.8c0,0-0.1-25.1-0.1-30.2c0-0.4-0.1-0.9-0.2-1.3c-1.2-3-6.3-4.8-11.4-5.9
				c-0.2,0-0.3-0.1-0.5-0.1c-4.5-0.9-8.5-1.2-8.5-1.2v1.2v0.1l0.1,35.8C23.4,60.3,37.7,55.3,44,61.8z"/>
			<path id="XMLID_1_" class="st1" d="M46,30c-0.2,0.4-0.3,0.8-0.3,1.3c0,5.1,0.1,30.3,0.1,30.3c6.3-6.5,21.5-1.8,21.5-1.8l0.2-35.3
				v-0.3l0.1-1.2c0,0-4.6,0.3-9.1,1.2c-0.5,0.1-1.1,0.2-1.6,0.3C52,25.5,47.1,27.3,46,30z"/>
		</g>
	</g>
</g>
</svg>
