<?xml version="1.0" encoding="utf-8"?>
<!-- Generator: Adobe Illustrator 19.0.0, SVG Export Plug-In . SVG Version: 6.00 Build 0)  -->
<svg version="1.1" id="Camada_1" xmlns="http://www.w3.org/2000/svg" xmlns:xlink="http://www.w3.org/1999/xlink" x="0px" y="0px"
	 viewBox="0 0 100 61" style="enable-background:new 0 0 100 61;" xml:space="preserve">
<style type="text/css">
	.st0{fill:#FFFFFF;}
</style>
<g id="E-book_1_">
	<path id="XMLID_38_" class="st0" d="M98.3,58.4c-0.3,0.2-0.6,0.3-1,0.4c-0.4,0.1-0.8,0.1-1.2,0.1H3.9c-0.4,0-0.9,0-1.2-0.1
		c-0.4-0.1-0.7-0.2-1-0.4c-0.3-0.2-0.6-0.3-0.8-0.5c-0.2-0.2-0.4-0.5-0.5-0.7c0.4,0.7,0.8,1.4,1.1,2.1C1.6,59.5,1.8,59.8,2,60
		c0.2,0.2,0.5,0.4,0.8,0.5c0.3,0.2,0.6,0.3,1,0.4C4.2,61,4.6,61,5,61h90c0.4,0,0.8,0,1.2-0.1c0.4-0.1,0.7-0.2,1-0.4
		c0.3-0.2,0.6-0.3,0.8-0.5c0.2-0.2,0.4-0.5,0.5-0.7c0.4-0.7,0.8-1.4,1.1-2.1c-0.1,0.3-0.3,0.5-0.5,0.7
		C98.9,58.1,98.6,58.3,98.3,58.4z"/>
	<path id="XMLID_37_" class="st0" d="M49.4,55.7h1.3c0.3,0,0.5-0.3,0.5-0.6l-0.1-0.8c0-0.3-0.2-0.6-0.5-0.6h-1.2
		c-0.3,0-0.5,0.3-0.5,0.6l-0.1,0.8C48.9,55.4,49.1,55.7,49.4,55.7z"/>
	<path id="XMLID_36_" class="st0" d="M15.4,49c1.4,0.3,2.8,0.4,4.1,0.3c2.3-0.2,4.4-1,6.2-1.8c0.5-0.2,1-0.5,1.5-0.7
		c0,0,0.1,0,0.1,0c2.2-1,4.4-2.2,6.7-2.8c1.6-0.4,3.3-0.6,4.8-0.5c0.3,0,0.7,0,1,0.1c2.6,0.3,5.2,1.4,7.3,3c0.5,0.4,1,0.8,1.5,1.3
		C48,46,46.7,44,45.1,42.9c-1.1-0.8-2.4-1.3-3.7-1.6c-0.5-0.1-1-0.2-1.6-0.2c-1,0-2,0-3.2,0.2c-1.7,0.3-3.4,0.8-5.3,1.7
		c-1.2,0.5-2.5,1.2-3.7,1.8c0,0-0.1,0-0.1,0c-1.3,0.6-2.7,1.3-4.1,1.8c-1.8,0.6-3.5,1-5.2,1c-1.1,0-2.2-0.1-3.4-0.3
		c-0.6-0.1-1.3-0.3-2-0.5c-0.3,0.4-0.6,0.8-0.9,1.2C13.2,48.4,14.4,48.8,15.4,49z"/>
	<path id="XMLID_35_" class="st0" d="M18.9,39.8c1.9,0.3,3.7,0.2,5.5-0.3c1.7-0.4,3.4-1.2,4.8-1.9c0.2-0.1,0.5-0.2,0.7-0.3
		c1.8-0.9,3.7-1.9,5.8-2.4c1.3-0.3,2.7-0.5,3.9-0.4c0.2,0,0.5,0,0.7,0c2.2,0.2,4.2,1,5.8,2.4c1.2,1,2.2,2.3,2.8,3.9c0-1.3,0-2.7,0-4
		c0-0.1,0-0.2,0-0.4c0-0.2,0-0.4,0-0.6l0,0l0,0l0,0c0-5.1,0-10.1,0-15.2c-0.6-0.9-1.4-1.5-2.2-2.1c-0.3-0.2-0.5-0.4-0.8-0.6
		c-0.3-0.2-0.6-0.4-0.9-0.5c-1.2-0.7-2.5-1.1-3.3-1.3c-0.5-0.1-1.1-0.2-1.6-0.2c-1.4,0-2.9,0.3-4.4,0.9c-1.6,0.6-3.2,1.6-4.7,2.5
		c-0.3,0.2-0.5,0.3-0.8,0.5c-1.5,0.9-3.2,1.9-5,2.3c-1,0.2-2,0.4-3.1,0.3c-1.2,4.8-2.8,11-4.4,17.2C18.1,39.7,18.5,39.8,18.9,39.8z"
		/>
	<path id="XMLID_34_" class="st0" d="M51.7,31.8c1-1.3,2.4-2.5,4.2-3.7c1.4-1,2.9-1.8,4.3-2.6c0.4-0.2,0.8-0.5,1.3-0.7
		c1.6-1,3.3-2,4.9-3.3c1.5-1.3,2.7-2.8,3.4-4.3c0.9-1.9,1.3-4.1,1.2-6.5c-0.2-0.2-0.3-0.3-0.5-0.5c-0.1-0.1-0.2-0.2-0.3-0.3
		C66.5,6.1,63.3,3,60.1,0c0,0.6,0,1.6,0,1.9c-0.6,4.7-2.7,7.2-4.8,9.4c-0.3,0.3-0.5,0.6-0.8,0.8l0,0c-2.3,2.3-3.8,4.8-4.6,7.7
		c0,5,0,10,0,15C50.4,33.7,51,32.7,51.7,31.8z"/>
	<path id="XMLID_33_" class="st0" d="M44.6,37.1c-0.9-0.6-2-1-3.1-1.2c-0.5-0.1-1-0.1-1.5-0.2c-0.8,0-1.6,0-2.5,0.1
		c-1.4,0.2-2.8,0.6-4.4,1.3c-1.1,0.4-2.2,1-3.2,1.5c-1.1,0.5-2.2,1-3.3,1.4c-1.5,0.6-3,0.9-4.3,1c-1.2,0.1-2.4,0-3.6-0.2
		c-0.4-0.1-0.9-0.2-1.3-0.3c-0.5,0.7-1.1,1.5-1.7,2.3c0.2,0.1,0.5,0.1,0.7,0.1c2.1,0.4,4.1,0.3,6.2-0.2c2-0.5,3.8-1.3,5.4-2.1
		c0.2-0.1,0.5-0.2,0.7-0.4c0,0,0,0,0.1,0c2-1,4.1-2.2,6.4-2.8c1.5-0.4,2.9-0.5,4.3-0.5c0.3,0,0.5,0,0.8,0.1c2.4,0.2,4.6,1.2,6.3,2.8
		c0.5,0.4,0.9,0.9,1.3,1.3l0,0C47.3,40,46.3,38.3,44.6,37.1z"/>
	<path id="XMLID_32_" class="st0" d="M71.6,9.6L71.6,9.6c0.1,0.1,0.2,0.2,0.2,0.3l0,0c0,0,0,0,0,0.1c0.1,1,0.1,1.8,0,2.5
		c-0.1,2.2-0.7,4.3-1.7,6.1c-0.5,0.8-1.1,1.6-1.9,2.4c-1.5,1.5-3.2,2.7-4.6,3.5c-0.9,0.6-1.8,1.1-2.8,1.6c-0.9,0.5-1.8,1-2.7,1.6
		c-1.4,0.9-3.3,2.1-4.8,3.7c-1.2,1.2-2.1,2.6-2.7,4.1c0.3-0.7,0.7-1.3,1.2-1.8c1.2-1.5,2.7-2.7,4.8-3.8c1.8-1,3.6-1.7,5.9-2.5
		c0.6-0.2,1.2-0.4,1.8-0.6c1.5-0.5,3-1.1,4.5-1.7c1.4-0.6,3.3-1.5,5-2.8c1.6-1.2,2.8-2.8,3.5-4.4c-1.3-2-2.6-4.1-3.8-6.1
		C71.8,8.9,70,5.9,68.1,3c-0.1,0.2-0.2,0.5-0.3,0.7c-0.1,0.1-0.1,0.3-0.2,0.4c-0.2,0.4-0.4,0.9-0.7,1.2c1.3,1.2,2.6,2.4,3.8,3.6
		C71,9.1,71.3,9.4,71.6,9.6z"/>
	<path id="XMLID_31_" class="st0" d="M19.6,28.7c0-0.2,0.1-0.3,0.1-0.5c-2.3,5.9-5.8,14.2-7.3,17.7c0.6-0.9,1.3-1.8,2-2.8
		c0.9-1.3,1.7-2.6,2.4-3.5c0.3-1.2,0.6-2.5,1-3.9c0.2-0.6,0.3-1.2,0.5-1.8C18.7,32.2,19.2,30.4,19.6,28.7z"/>
	<path id="XMLID_30_" class="st0" d="M44.9,40c-1-0.7-2.2-1.2-3.5-1.5c-0.5-0.1-1.1-0.2-1.6-0.2c-0.9,0-1.8,0-2.8,0.2
		c-1.6,0.2-3.2,0.7-4.9,1.4c-1.2,0.5-2.4,1.1-3.6,1.7c0,0-0.1,0-0.1,0c-1.1,0.5-2.4,1.1-3.6,1.6c-1.7,0.6-3.3,0.9-4.8,1
		c-1.3,0.1-2.6,0-4-0.3c-0.3-0.1-0.7-0.1-1-0.2c-0.5,0.7-1,1.5-1.5,2.1c0.5,0.2,1,0.3,1.5,0.4c2,0.4,4,0.4,5.9,0
		c2.1-0.5,4.1-1.4,5.8-2.2c0.3-0.2,0.6-0.3,0.9-0.5c0,0,0,0,0.1,0c2.1-1.1,4.4-2.3,6.7-3c1.7-0.5,3.3-0.7,4.8-0.6c0.2,0,0.4,0,0.6,0
		c2.5,0.2,5,1.3,6.8,3c0.5,0.4,1.1,1.2,1.6,1.8C47.6,42.7,46.4,41,44.9,40z"/>
	<path id="XMLID_29_" class="st0" d="M71.3,25.1c-2.1,1.1-4.4,1.9-6.6,2.7c-1.9,0.7-3.8,1.4-5.7,2.2c-2.2,1-3.9,2-5.2,3.1
		c-1.2,1.1-2.2,2.4-2.9,3.8c0.1-0.2,0.2-0.3,0.3-0.5c0.5-0.8,1.1-1.6,2-2.4c0.8-0.7,1.6-1.3,2.6-1.8c1.9-1,4-1.6,6.4-1.7
		c0.1,0,0.2,0,0.3,0c2-0.1,3.9,0.2,5.8,0.4c0.3,0,0.6,0.1,0.9,0.1c1.9,0.2,3.7,0.3,5.5,0.1c0.5-0.1,1-0.1,1.5-0.2
		c1.3-0.3,2.4-0.8,3.4-1.4c0.6-0.4,1.1-1,1.5-1.5c-0.6-1.3-1.1-2.7-1.5-4c-0.5-1.5-1.1-3.1-1.8-4.6c-0.5,0.9-1,1.7-1.7,2.4
		C75,22.9,73.4,24,71.3,25.1z"/>
	<path id="XMLID_28_" class="st0" d="M74.8,12.2c0.2,0.3,0.4,0.6,0.6,1c0.3,0.5,0.6,1,1,1.5c-0.4-1-0.7-2-1-2.9
		c-0.2-0.6-0.4-1.2-0.6-1.8c-0.1,0.1-0.2,0.2-0.3,0.3c-0.2,0.2-0.4,0.4-0.6,0.5c0.2,0.3,0.4,0.6,0.5,0.9
		C74.6,11.8,74.7,12,74.8,12.2z"/>
	<path id="XMLID_27_" class="st0" d="M51.8,46.5c2.1-1.6,4.7-2.7,7.3-3c0.3,0,0.7-0.1,1-0.1c1.6-0.1,3.2,0.1,4.8,0.5
		c2.4,0.6,4.6,1.7,6.7,2.8c0,0,0.1,0,0.1,0c0.4,0.2,1,0.5,1.5,0.7c1.8,0.8,3.9,1.6,6.2,1.8c1.3,0.1,2.7,0,4.1-0.3
		c1.1-0.2,2.2-0.6,3.3-1.1c-0.2-0.2-0.3-0.4-0.5-0.7c-0.1-0.2-0.3-0.4-0.4-0.6c-0.7,0.2-1.3,0.4-2,0.5c-1.2,0.2-2.3,0.4-3.4,0.3
		c-1.6,0-3.3-0.3-5.2-1c-1.4-0.5-2.9-1.2-4.1-1.8c0,0-0.1,0-0.1,0c-1.2-0.6-2.4-1.2-3.7-1.8c-1.9-0.8-3.6-1.4-5.3-1.7
		c-1.1-0.2-2.2-0.3-3.2-0.2c-0.5,0-1.1,0.1-1.6,0.2c-1.4,0.3-2.6,0.8-3.7,1.6c-1.5,1.1-2.7,3-3.4,4.8C50.9,47.3,51.4,46.9,51.8,46.5
		z"/>
	<path id="XMLID_26_" class="st0" d="M85.6,43.7c-0.3-0.6-0.5-1.2-0.8-1.8c-0.6-1.3-1.1-2.6-1.7-3.9c-0.3-0.7-0.6-1.4-0.8-2
		c-0.3-0.8-0.7-1.7-1-2.5c-0.4-1-0.8-2-1.2-3c0,0-0.1,0-0.1,0.1l0,0c0.7,2.7,1.4,5.6,2.2,8.9c0,0.1,0.1,0.3,0.2,0.4
		c0.1,0.1,0.1,0.1,0.2,0.2c0.4,0.6,0.8,1.2,1.2,1.8c0.8,1.1,1.6,2.3,2.4,3.4c0-0.1,0-0.1-0.1-0.2C86,44.6,85.8,44.2,85.6,43.7z"/>
	<path id="XMLID_25_" class="st0" d="M80.2,40.8c-2.1,0.3-4.2,0.2-6.4-0.4c-1.8-0.5-3.6-1.3-5.3-2.1c-0.2-0.1-0.4-0.2-0.6-0.3
		c0,0,0,0-0.1,0c-1.7-0.8-3.4-1.7-5.3-2c-1.1-0.2-2.1-0.3-3.1-0.3c-0.2,0-0.3,0-0.5,0c-1.1,0.1-2.1,0.3-3,0.6
		c-1,0.4-1.9,0.9-2.6,1.5c-0.7,0.7-1.4,1.5-1.9,2.4c-0.3,0.5-0.5,1-0.7,1.5c0.5-0.6,1-1.2,1.6-1.7c1.7-1.6,4-2.5,6.3-2.8
		c0.2,0,0.5,0,0.8-0.1c1.4-0.1,2.8,0.1,4.3,0.5c2.3,0.6,4.4,1.7,6.4,2.8c0,0,0,0,0.1,0c0.1,0,0.1,0.1,0.2,0.1
		c0.2,0.1,0.4,0.2,0.6,0.3c1.6,0.8,3.4,1.6,5.4,2.1c2,0.5,4.1,0.6,6.2,0.2c0.2,0,0.5-0.1,0.7-0.2c-0.6-0.9-1.2-1.7-1.8-2.4
		C81.1,40.6,80.7,40.7,80.2,40.8L80.2,40.8z"/>
	<path id="XMLID_24_" class="st0" d="M79,31c-1.2,0.6-2.6,1-4.1,1.1c0,0-0.1,0-0.1,0c-2.2,0.2-4.3,0-6.4-0.2
		c-1.2-0.1-2.4-0.2-3.6-0.3c-0.7,0-1.4,0-2.1,0c-1.8,0.1-3.5,0.4-5.1,1c-2.1,0.8-3.8,1.9-5.1,3.4l0,0l0,0c-0.2,0.2-0.3,0.4-0.5,0.7
		c-0.1,0.1-0.1,0.2-0.2,0.2c-0.4,0.7-0.8,1.4-1.1,2.2c0.7-1.2,1.7-2.2,2.8-2.9c1.5-1,3.4-1.6,5.5-1.7c0.2,0,0.5,0,0.8,0
		c1.2,0,2.3,0.2,3.5,0.5c0,0,0.1,0,0.2,0c0.1,0,0.2,0.1,0.3,0.1l0,0l0,0c0.4,0.1,0.9,0.3,1.4,0.5c0.6,0.2,1.1,0.5,1.7,0.7
		c0.2,0.1,0.4,0.2,0.6,0.3c0.3,0.2,0.7,0.3,1,0.5c1.2,0.6,2.5,1.2,3.8,1.7c2.2,0.8,4.1,1.1,5.9,1l0,0l0,0c0,0,0.1,0,0.2,0l0,0l0,0
		c0.1,0,0.2,0,0.2,0c0.1,0,0.1,0,0.2,0c0,0,0.1,0,0.1,0c0,0,0.1,0,0.1,0c0.1,0,0.1,0,0.2,0l0,0l0,0c0.1,0,0.2,0,0.3,0
		c0,0,0.1,0,0.1,0c0,0,0.1,0,0.1,0c0,0,0,0,0.1,0c0,0,0.1,0,0.1,0c0.1,0,0.1,0,0.2,0c0.1,0,0.1,0,0.2,0c0.1,0,0.2,0,0.3-0.1
		c0.1,0,0.2-0.1,0.2-0.1c-0.3-1.5-0.7-3-1.1-4.5C79.7,33.7,79.3,32.4,79,31z"/>
	<path id="XMLID_23_" class="st0" d="M52.1,42.9c1.9-1.7,4.3-2.8,6.8-3c0.2,0,0.4,0,0.6,0c1.5-0.1,3.2,0.1,4.8,0.6
		c2.4,0.7,4.6,1.9,6.7,3c0,0,0.1,0,0.1,0c0.3,0.2,0.6,0.3,0.9,0.5c1.7,0.9,3.7,1.8,5.8,2.2c2,0.4,4,0.4,5.9,0
		c0.5-0.1,1.1-0.2,1.6-0.4c-0.6-0.8-1.1-1.5-1.5-2.1c-0.3,0.1-0.7,0.2-1,0.2c-1.4,0.3-2.7,0.4-4,0.3c-1.5-0.1-3.1-0.4-4.8-1
		c-1.3-0.5-2.5-1-3.6-1.6c0,0-0.1,0-0.1-0.1c-1.1-0.6-2.3-1.1-3.5-1.6c-1.7-0.7-3.3-1.2-4.9-1.4c-1-0.1-1.9-0.2-2.8-0.2
		c-0.6,0-1.1,0.1-1.6,0.2c-1.3,0.2-2.5,0.7-3.5,1.5c-1.5,1-2.7,2.7-3.6,4.7C51,44,51.6,43.4,52.1,42.9z"/>
	<path class="st0" d="M1.8,57.6C2.4,57.8,3.1,58,3.9,58h92.1c0.8,0,1.6-0.2,2.2-0.4c0.6-0.3,1-0.7,1.4-1.1c0.3-0.5,0.4-1,0.4-1.6
		c0-0.6-0.2-1.3-0.6-1.9L84.8,24.9c-0.2-0.3-0.5-0.6-0.8-0.9c-0.3-0.3-0.8-0.5-1.2-0.7c-0.5-0.2-1-0.4-1.5-0.5
		c-0.4-0.1-0.7-0.1-1.1-0.2l0,0l1,2.3h0l12.5,27.9H6.3l13-27.9h1.3c0.8-2.4,0.7-2.4,0.7-2.3c0,0,0,0,0,0H21h-0.6
		c-0.5,0-1.1,0.1-1.6,0.2c-0.5,0.1-1,0.3-1.5,0.5c-0.5,0.2-0.9,0.5-1.2,0.7c-0.4,0.3-0.6,0.6-0.8,0.9L0.6,52.8
		C0.2,53.5,0,54.2,0,54.8c0,0.6,0.1,1.2,0.4,1.6C0.7,56.9,1.2,57.3,1.8,57.6z M87.8,36c-0.5,0-0.9-0.3-0.9-0.7
		c0-0.4,0.3-0.7,0.7-0.7c0.4,0,0.9,0.3,0.9,0.7C88.6,35.7,88.3,36,87.8,36z M48.3,54.3c0-0.5,0.4-0.9,0.8-0.9h1.8
		c0.4,0,0.7,0.4,0.8,0.9l0.1,1.3c0,0.1,0,0.2,0,0.3c0-0.2,0-0.4,0-0.6l0,0v0v0l0,0l0,0.7c-0.1,0.3-0.4,0.6-0.7,0.6h-2
		c-0.3,0-0.6-0.2-0.7-0.6l0-0.6v0v0v0v0c0,0.2,0,0.4,0,0.6c0-0.1,0-0.2,0-0.3L48.3,54.3z"/>
</g>
<g id="E-book_2_">
	<path id="XMLID_19_" class="st0" d="M98.3,58.4c-0.3,0.2-0.6,0.3-1,0.4c-0.4,0.1-0.8,0.1-1.2,0.1H3.9c-0.4,0-0.9,0-1.2-0.1
		c-0.4-0.1-0.7-0.2-1-0.4c-0.3-0.2-0.6-0.3-0.8-0.5c-0.2-0.2-0.4-0.5-0.5-0.7c0.4,0.7,0.8,1.4,1.1,2.1C1.6,59.5,1.8,59.8,2,60
		c0.2,0.2,0.5,0.4,0.8,0.5c0.3,0.2,0.6,0.3,1,0.4C4.2,61,4.6,61,5,61h90c0.4,0,0.8,0,1.2-0.1c0.4-0.1,0.7-0.2,1-0.4
		c0.3-0.2,0.6-0.3,0.8-0.5c0.2-0.2,0.4-0.5,0.5-0.7c0.4-0.7,0.8-1.4,1.1-2.1c-0.1,0.3-0.3,0.5-0.5,0.7
		C98.9,58.1,98.6,58.3,98.3,58.4z"/>
	<path id="XMLID_18_" class="st0" d="M49.4,55.7h1.3c0.3,0,0.5-0.3,0.5-0.6l-0.1-0.8c0-0.3-0.2-0.6-0.5-0.6h-1.2
		c-0.3,0-0.5,0.3-0.5,0.6l-0.1,0.8C48.9,55.4,49.1,55.7,49.4,55.7z"/>
	<path id="XMLID_17_" class="st0" d="M15.4,49c1.4,0.3,2.8,0.4,4.1,0.3c2.3-0.2,4.4-1,6.2-1.8c0.5-0.2,1-0.5,1.5-0.7
		c0,0,0.1,0,0.1,0c2.2-1,4.4-2.2,6.7-2.8c1.6-0.4,3.3-0.6,4.8-0.5c0.3,0,0.7,0,1,0.1c2.6,0.3,5.2,1.4,7.3,3c0.5,0.4,1,0.8,1.5,1.3
		C48,46,46.7,44,45.1,42.9c-1.1-0.8-2.4-1.3-3.7-1.6c-0.5-0.1-1-0.2-1.6-0.2c-1,0-2,0-3.2,0.2c-1.7,0.3-3.4,0.8-5.3,1.7
		c-1.2,0.5-2.5,1.2-3.7,1.8c0,0-0.1,0-0.1,0c-1.3,0.6-2.7,1.3-4.1,1.8c-1.8,0.6-3.5,1-5.2,1c-1.1,0-2.2-0.1-3.4-0.3
		c-0.6-0.1-1.3-0.3-2-0.5c-0.3,0.4-0.6,0.8-0.9,1.2C13.2,48.4,14.4,48.8,15.4,49z"/>
	<path id="XMLID_16_" class="st0" d="M18.9,39.8c1.9,0.3,3.7,0.2,5.5-0.3c1.7-0.4,3.4-1.2,4.8-1.9c0.2-0.1,0.5-0.2,0.7-0.3
		c1.8-0.9,3.7-1.9,5.8-2.4c1.3-0.3,2.7-0.5,3.9-0.4c0.2,0,0.5,0,0.7,0c2.2,0.2,4.2,1,5.8,2.4c1.2,1,2.2,2.3,2.8,3.9c0-1.3,0-2.7,0-4
		c0-0.1,0-0.2,0-0.4c0-0.2,0-0.4,0-0.6l0,0l0,0l0,0c0-5.1,0-10.1,0-15.2c-0.6-0.9-1.4-1.5-2.2-2.1c-0.3-0.2-0.5-0.4-0.8-0.6
		c-0.3-0.2-0.6-0.4-0.9-0.5c-1.2-0.7-2.5-1.1-3.3-1.3c-0.5-0.1-1.1-0.2-1.6-0.2c-1.4,0-2.9,0.3-4.4,0.9c-1.6,0.6-3.2,1.6-4.7,2.5
		c-0.3,0.2-0.5,0.3-0.8,0.5c-1.5,0.9-3.2,1.9-5,2.3c-1,0.2-2,0.4-3.1,0.3c-1.2,4.8-2.8,11-4.4,17.2C18.1,39.7,18.5,39.8,18.9,39.8z"
		/>
	<path id="XMLID_15_" class="st0" d="M51.7,31.8c1-1.3,2.4-2.5,4.2-3.7c1.4-1,2.9-1.8,4.3-2.6c0.4-0.2,0.8-0.5,1.3-0.7
		c1.6-1,3.3-2,4.9-3.3c1.5-1.3,2.7-2.8,3.4-4.3c0.9-1.9,1.3-4.1,1.2-6.5c-0.2-0.2-0.3-0.3-0.5-0.5c-0.1-0.1-0.2-0.2-0.3-0.3
		C66.5,6.1,63.3,3,60.1,0c0,0.6,0,1.6,0,1.9c-0.6,4.7-2.7,7.2-4.8,9.4c-0.3,0.3-0.5,0.6-0.8,0.8l0,0c-2.3,2.3-3.8,4.8-4.6,7.7
		c0,5,0,10,0,15C50.4,33.7,51,32.7,51.7,31.8z"/>
	<path id="XMLID_14_" class="st0" d="M44.6,37.1c-0.9-0.6-2-1-3.1-1.2c-0.5-0.1-1-0.1-1.5-0.2c-0.8,0-1.6,0-2.5,0.1
		c-1.4,0.2-2.8,0.6-4.4,1.3c-1.1,0.4-2.2,1-3.2,1.5c-1.1,0.5-2.2,1-3.3,1.4c-1.5,0.6-3,0.9-4.3,1c-1.2,0.1-2.4,0-3.6-0.2
		c-0.4-0.1-0.9-0.2-1.3-0.3c-0.5,0.7-1.1,1.5-1.7,2.3c0.2,0.1,0.5,0.1,0.7,0.1c2.1,0.4,4.1,0.3,6.2-0.2c2-0.5,3.8-1.3,5.4-2.1
		c0.2-0.1,0.5-0.2,0.7-0.4c0,0,0,0,0.1,0c2-1,4.1-2.2,6.4-2.8c1.5-0.4,2.9-0.5,4.3-0.5c0.3,0,0.5,0,0.8,0.1c2.4,0.2,4.6,1.2,6.3,2.8
		c0.5,0.4,0.9,0.9,1.3,1.3l0,0C47.3,40,46.3,38.3,44.6,37.1z"/>
	<path id="XMLID_13_" class="st0" d="M71.6,9.6L71.6,9.6c0.1,0.1,0.2,0.2,0.2,0.3l0,0c0,0,0,0,0,0.1c0.1,1,0.1,1.8,0,2.5
		c-0.1,2.2-0.7,4.3-1.7,6.1c-0.5,0.8-1.1,1.6-1.9,2.4c-1.5,1.5-3.2,2.7-4.6,3.5c-0.9,0.6-1.8,1.1-2.8,1.6c-0.9,0.5-1.8,1-2.7,1.6
		c-1.4,0.9-3.3,2.1-4.8,3.7c-1.2,1.2-2.1,2.6-2.7,4.1c0.3-0.7,0.7-1.3,1.2-1.8c1.2-1.5,2.7-2.7,4.8-3.8c1.8-1,3.6-1.7,5.9-2.5
		c0.6-0.2,1.2-0.4,1.8-0.6c1.5-0.5,3-1.1,4.5-1.7c1.4-0.6,3.3-1.5,5-2.8c1.6-1.2,2.8-2.8,3.5-4.4c-1.3-2-2.6-4.1-3.8-6.1
		C71.8,8.9,70,5.9,68.1,3c-0.1,0.2-0.2,0.5-0.3,0.7c-0.1,0.1-0.1,0.3-0.2,0.4c-0.2,0.4-0.4,0.9-0.7,1.2c1.3,1.2,2.6,2.4,3.8,3.6
		C71,9.1,71.3,9.4,71.6,9.6z"/>
	<path id="XMLID_12_" class="st0" d="M19.6,28.7c0-0.2,0.1-0.3,0.1-0.5c-2.3,5.9-5.8,14.2-7.3,17.7c0.6-0.9,1.3-1.8,2-2.8
		c0.9-1.3,1.7-2.6,2.4-3.5c0.3-1.2,0.6-2.5,1-3.9c0.2-0.6,0.3-1.2,0.5-1.8C18.7,32.2,19.2,30.4,19.6,28.7z"/>
	<path id="XMLID_11_" class="st0" d="M44.9,40c-1-0.7-2.2-1.2-3.5-1.5c-0.5-0.1-1.1-0.2-1.6-0.2c-0.9,0-1.8,0-2.8,0.2
		c-1.6,0.2-3.2,0.7-4.9,1.4c-1.2,0.5-2.4,1.1-3.6,1.7c0,0-0.1,0-0.1,0c-1.1,0.5-2.4,1.1-3.6,1.6c-1.7,0.6-3.3,0.9-4.8,1
		c-1.3,0.1-2.6,0-4-0.3c-0.3-0.1-0.7-0.1-1-0.2c-0.5,0.7-1,1.5-1.5,2.1c0.5,0.2,1,0.3,1.5,0.4c2,0.4,4,0.4,5.9,0
		c2.1-0.5,4.1-1.4,5.8-2.2c0.3-0.2,0.6-0.3,0.9-0.5c0,0,0,0,0.1,0c2.1-1.1,4.4-2.3,6.7-3c1.7-0.5,3.3-0.7,4.8-0.6c0.2,0,0.4,0,0.6,0
		c2.5,0.2,5,1.3,6.8,3c0.5,0.4,1.1,1.2,1.6,1.8C47.6,42.7,46.4,41,44.9,40z"/>
	<path id="XMLID_10_" class="st0" d="M71.3,25.1c-2.1,1.1-4.4,1.9-6.6,2.7c-1.9,0.7-3.8,1.4-5.7,2.2c-2.2,1-3.9,2-5.2,3.1
		c-1.2,1.1-2.2,2.4-2.9,3.8c0.1-0.2,0.2-0.3,0.3-0.5c0.5-0.8,1.1-1.6,2-2.4c0.8-0.7,1.6-1.3,2.6-1.8c1.9-1,4-1.6,6.4-1.7
		c0.1,0,0.2,0,0.3,0c2-0.1,3.9,0.2,5.8,0.4c0.3,0,0.6,0.1,0.9,0.1c1.9,0.2,3.7,0.3,5.5,0.1c0.5-0.1,1-0.1,1.5-0.2
		c1.3-0.3,2.4-0.8,3.4-1.4c0.6-0.4,1.1-1,1.5-1.5c-0.6-1.3-1.1-2.7-1.5-4c-0.5-1.5-1.1-3.1-1.8-4.6c-0.5,0.9-1,1.7-1.7,2.4
		C75,22.9,73.4,24,71.3,25.1z"/>
	<path id="XMLID_9_" class="st0" d="M74.8,12.2c0.2,0.3,0.4,0.6,0.6,1c0.3,0.5,0.6,1,1,1.5c-0.4-1-0.7-2-1-2.9
		c-0.2-0.6-0.4-1.2-0.6-1.8c-0.1,0.1-0.2,0.2-0.3,0.3c-0.2,0.2-0.4,0.4-0.6,0.5c0.2,0.3,0.4,0.6,0.5,0.9
		C74.6,11.8,74.7,12,74.8,12.2z"/>
	<path id="XMLID_8_" class="st0" d="M51.8,46.5c2.1-1.6,4.7-2.7,7.3-3c0.3,0,0.7-0.1,1-0.1c1.6-0.1,3.2,0.1,4.8,0.5
		c2.4,0.6,4.6,1.7,6.7,2.8c0,0,0.1,0,0.1,0c0.4,0.2,1,0.5,1.5,0.7c1.8,0.8,3.9,1.6,6.2,1.8c1.3,0.1,2.7,0,4.1-0.3
		c1.1-0.2,2.2-0.6,3.3-1.1c-0.2-0.2-0.3-0.4-0.5-0.7c-0.1-0.2-0.3-0.4-0.4-0.6c-0.7,0.2-1.3,0.4-2,0.5c-1.2,0.2-2.3,0.4-3.4,0.3
		c-1.6,0-3.3-0.3-5.2-1c-1.4-0.5-2.9-1.2-4.1-1.8c0,0-0.1,0-0.1,0c-1.2-0.6-2.4-1.2-3.7-1.8c-1.9-0.8-3.6-1.4-5.3-1.7
		c-1.1-0.2-2.2-0.3-3.2-0.2c-0.5,0-1.1,0.1-1.6,0.2c-1.4,0.3-2.6,0.8-3.7,1.6c-1.5,1.1-2.7,3-3.4,4.8C50.9,47.3,51.4,46.9,51.8,46.5
		z"/>
	<path id="XMLID_7_" class="st0" d="M85.6,43.7c-0.3-0.6-0.5-1.2-0.8-1.8c-0.6-1.3-1.1-2.6-1.7-3.9c-0.3-0.7-0.6-1.4-0.8-2
		c-0.3-0.8-0.7-1.7-1-2.5c-0.4-1-0.8-2-1.2-3c0,0-0.1,0-0.1,0.1l0,0c0.7,2.7,1.4,5.6,2.2,8.9c0,0.1,0.1,0.3,0.2,0.4
		c0.1,0.1,0.1,0.1,0.2,0.2c0.4,0.6,0.8,1.2,1.2,1.8c0.8,1.1,1.6,2.3,2.4,3.4c0-0.1,0-0.1-0.1-0.2C86,44.6,85.8,44.2,85.6,43.7z"/>
	<path id="XMLID_6_" class="st0" d="M80.2,40.8c-2.1,0.3-4.2,0.2-6.4-0.4c-1.8-0.5-3.6-1.3-5.3-2.1c-0.2-0.1-0.4-0.2-0.6-0.3
		c0,0,0,0-0.1,0c-1.7-0.8-3.4-1.7-5.3-2c-1.1-0.2-2.1-0.3-3.1-0.3c-0.2,0-0.3,0-0.5,0c-1.1,0.1-2.1,0.3-3,0.6
		c-1,0.4-1.9,0.9-2.6,1.5c-0.7,0.7-1.4,1.5-1.9,2.4c-0.3,0.5-0.5,1-0.7,1.5c0.5-0.6,1-1.2,1.6-1.7c1.7-1.6,4-2.5,6.3-2.8
		c0.2,0,0.5,0,0.8-0.1c1.4-0.1,2.8,0.1,4.3,0.5c2.3,0.6,4.4,1.7,6.4,2.8c0,0,0,0,0.1,0c0.1,0,0.1,0.1,0.2,0.1
		c0.2,0.1,0.4,0.2,0.6,0.3c1.6,0.8,3.4,1.6,5.4,2.1c2,0.5,4.1,0.6,6.2,0.2c0.2,0,0.5-0.1,0.7-0.2c-0.6-0.9-1.2-1.7-1.8-2.4
		C81.1,40.6,80.7,40.7,80.2,40.8L80.2,40.8z"/>
	<path id="XMLID_5_" class="st0" d="M79,31c-1.2,0.6-2.6,1-4.1,1.1c0,0-0.1,0-0.1,0c-2.2,0.2-4.3,0-6.4-0.2
		c-1.2-0.1-2.4-0.2-3.6-0.3c-0.7,0-1.4,0-2.1,0c-1.8,0.1-3.5,0.4-5.1,1c-2.1,0.8-3.8,1.9-5.1,3.4l0,0l0,0c-0.2,0.2-0.3,0.4-0.5,0.7
		c-0.1,0.1-0.1,0.2-0.2,0.2c-0.4,0.7-0.8,1.4-1.1,2.2c0.7-1.2,1.7-2.2,2.8-2.9c1.5-1,3.4-1.6,5.5-1.7c0.2,0,0.5,0,0.8,0
		c1.2,0,2.3,0.2,3.5,0.5c0,0,0.1,0,0.2,0c0.1,0,0.2,0.1,0.3,0.1l0,0l0,0c0.4,0.1,0.9,0.3,1.4,0.5c0.6,0.2,1.1,0.5,1.7,0.7
		c0.2,0.1,0.4,0.2,0.6,0.3c0.3,0.2,0.7,0.3,1,0.5c1.2,0.6,2.5,1.2,3.8,1.7c2.2,0.8,4.1,1.1,5.9,1l0,0l0,0c0,0,0.1,0,0.2,0l0,0l0,0
		c0.1,0,0.2,0,0.2,0c0.1,0,0.1,0,0.2,0c0,0,0.1,0,0.1,0c0,0,0.1,0,0.1,0c0.1,0,0.1,0,0.2,0l0,0l0,0c0.1,0,0.2,0,0.3,0
		c0,0,0.1,0,0.1,0c0,0,0.1,0,0.1,0c0,0,0,0,0.1,0c0,0,0.1,0,0.1,0c0.1,0,0.1,0,0.2,0c0.1,0,0.1,0,0.2,0c0.1,0,0.2,0,0.3-0.1
		c0.1,0,0.2-0.1,0.2-0.1c-0.3-1.5-0.7-3-1.1-4.5C79.7,33.7,79.3,32.4,79,31z"/>
	<path id="XMLID_4_" class="st0" d="M52.1,42.9c1.9-1.7,4.3-2.8,6.8-3c0.2,0,0.4,0,0.6,0c1.5-0.1,3.2,0.1,4.8,0.6
		c2.4,0.7,4.6,1.9,6.7,3c0,0,0.1,0,0.1,0c0.3,0.2,0.6,0.3,0.9,0.5c1.7,0.9,3.7,1.8,5.8,2.2c2,0.4,4,0.4,5.9,0
		c0.5-0.1,1.1-0.2,1.6-0.4c-0.6-0.8-1.1-1.5-1.5-2.1c-0.3,0.1-0.7,0.2-1,0.2c-1.4,0.3-2.7,0.4-4,0.3c-1.5-0.1-3.1-0.4-4.8-1
		c-1.3-0.5-2.5-1-3.6-1.6c0,0-0.1,0-0.1-0.1c-1.1-0.6-2.3-1.1-3.5-1.6c-1.7-0.7-3.3-1.2-4.9-1.4c-1-0.1-1.9-0.2-2.8-0.2
		c-0.6,0-1.1,0.1-1.6,0.2c-1.3,0.2-2.5,0.7-3.5,1.5c-1.5,1-2.7,2.7-3.6,4.7C51,44,51.6,43.4,52.1,42.9z"/>
	<path class="st0" d="M1.8,57.6C2.4,57.8,3.1,58,3.9,58h92.1c0.8,0,1.6-0.2,2.2-0.4c0.6-0.3,1-0.7,1.4-1.1c0.3-0.5,0.4-1,0.4-1.6
		c0-0.6-0.2-1.3-0.6-1.9L84.8,24.9c-0.2-0.3-0.5-0.6-0.8-0.9c-0.3-0.3-0.8-0.5-1.2-0.7c-0.5-0.2-1-0.4-1.5-0.5
		c-0.4-0.1-0.7-0.1-1.1-0.2l0,0l1,2.3h0l12.5,27.9H6.3l13-27.9h1.3c0.8-2.4,0.7-2.4,0.7-2.3c0,0,0,0,0,0H21h-0.6
		c-0.5,0-1.1,0.1-1.6,0.2c-0.5,0.1-1,0.3-1.5,0.5c-0.5,0.2-0.9,0.5-1.2,0.7c-0.4,0.3-0.6,0.6-0.8,0.9L0.6,52.8
		C0.2,53.5,0,54.2,0,54.8c0,0.6,0.1,1.2,0.4,1.6C0.7,56.9,1.2,57.3,1.8,57.6z M87.8,36c-0.5,0-0.9-0.3-0.9-0.7
		c0-0.4,0.3-0.7,0.7-0.7c0.4,0,0.9,0.3,0.9,0.7C88.6,35.7,88.3,36,87.8,36z M48.3,54.3c0-0.5,0.4-0.9,0.8-0.9h1.8
		c0.4,0,0.7,0.4,0.8,0.9l0.1,1.3c0,0.1,0,0.2,0,0.3c0-0.2,0-0.4,0-0.6l0,0v0v0l0,0l0,0.7c-0.1,0.3-0.4,0.6-0.7,0.6h-2
		c-0.3,0-0.6-0.2-0.7-0.6l0-0.6v0v0v0v0c0,0.2,0,0.4,0,0.6c0-0.1,0-0.2,0-0.3L48.3,54.3z"/>
</g>
</svg>
