<?xml version="1.0" encoding="utf-8"?>
<!-- Generator: Adobe Illustrator 19.0.0, SVG Export Plug-In . SVG Version: 6.00 Build 0)  -->
<svg version="1.1" id="Camada_1" xmlns="http://www.w3.org/2000/svg" xmlns:xlink="http://www.w3.org/1999/xlink" x="0px" y="0px"
	 viewBox="0 0 70 55" style="enable-background:new 0 0 70 55;" xml:space="preserve">
<style type="text/css">
	.st0{fill:#E3388C;}
	.st1{clip-path:url(#XMLID_9_);fill:#E3388C;}
</style>
<g>
	<path class="st0" d="M43.7,5.3c1.5-2.3-0.4-2.9-1.3-3.3C38.7,0.7,34.7,0,30.5,0C13.7,0,0,11.8,0,26.3c0,14.4,13.4,26.1,30.1,26.3
		c0.2,0,0.3,0,0.5,0c1,0,3.1-0.3,2.6-2.8c0,0-1.6-14.9-2.3-20.8C30.5,26,32,24,32,24L43.7,5.3z M43.7,5.3"/>
	<g>
		<defs>
			<rect id="XMLID_1_" width="70" height="54.4"/>
		</defs>
		<clipPath id="XMLID_9_">
			<use xlink:href="#XMLID_1_"  style="overflow:visible;"/>
		</clipPath>
		<path class="st1" d="M68.1,23.2c1.8,0,1.9-1.3,1.8-1.9c-0.7-8.5-6.1-15.9-14-20.3c-0.6-0.4-2-1-3.2,0.9L40.4,21.7
			c0,0-1.1,1.5,1.4,1.5H68.1z M68.1,23.2"/>
		<path class="st1" d="M63.9,28.1H36.4c-1.9,0-1.6,1.3-1.6,1.3l2.6,23.2c0.2,1.9,1.9,1.5,2.8,1.3c13.7-2.2,24.3-12.3,25-24.6
			C65.1,29,65.2,28.1,63.9,28.1L63.9,28.1z M63.9,28.1"/>
	</g>
</g>
</svg>
