<?xml version="1.0" encoding="utf-8"?>
<!-- Generator: Adobe Illustrator 19.0.0, SVG Export Plug-In . SVG Version: 6.00 Build 0)  -->
<svg version="1.1" id="Camada_1" xmlns="http://www.w3.org/2000/svg" xmlns:xlink="http://www.w3.org/1999/xlink" x="0px" y="0px"
	 viewBox="0 0 70 44" style="enable-background:new 0 0 70 44;" xml:space="preserve">
<style type="text/css">
	.st0{fill:#E1388B;}
</style>
<g>
	<polygon id="XMLID_3_" class="st0" points="70,13.7 35,0 0,13.7 35,25.6 	"/>
	<path id="XMLID_2_" class="st0" d="M14.3,19.9v15.2v0c0,4.1,9.3,7.5,20.8,7.5s20.8-3.3,20.8-7.5V19.8L35,26.9L14.3,19.9z"/>
	<path id="XMLID_1_" class="st0" d="M8.2,34.9v-1.2c0.6-0.3,1-0.8,1-1.5c0-0.7-0.4-1.3-1-1.5V17.8l-1.4-0.5v13.2
		c-0.6,0.3-1,0.8-1,1.5c0,0.7,0.4,1.3,1,1.5v1.2c-0.3,0.2-0.4,0.6-0.4,0.6l-1.2,7.5c0,0.4,0.5,0.6,1.2,0.6h2.1
		c0.7,0,1.2-0.3,1.2-0.6l-1.2-7.5C8.5,35.5,8.5,35,8.2,34.9z"/>
</g>
</svg>
