<?xml version="1.0" encoding="utf-8"?>
<!-- Generator: Adobe Illustrator 19.0.0, SVG Export Plug-In . SVG Version: 6.00 Build 0)  -->
<svg version="1.1" id="Camada_1" xmlns="http://www.w3.org/2000/svg" xmlns:xlink="http://www.w3.org/1999/xlink" x="0px" y="0px"
	 viewBox="0 0 70 55" style="enable-background:new 0 0 70 55;" xml:space="preserve">
<style type="text/css">
	.st0{clip-path:url(#XMLID_11_);fill:#E3388C;}
</style>
<g>
	<g>
		<defs>
			<rect id="XMLID_1_" width="70" height="54.7"/>
		</defs>
		<clipPath id="XMLID_11_">
			<use xlink:href="#XMLID_1_"  style="overflow:visible;"/>
		</clipPath>
		<path class="st0" d="M64.6,16.4c-0.3-2.1-0.3-5.8,1.6-7c0,0,0.1-0.1,0.1-0.1c1.6-0.5,2.7-1.2,1.8-2.2L44.5,0L6.1,5.3
			c0,0-4.4,0.6-4,7.5c0.2,3.7,1.4,5.5,2.4,6.4l-3.1,1c-0.9,1,0.2,1.7,1.8,2.2c0,0,0.1,0.1,0.1,0.1c2,1.2,1.9,4.9,1.6,7
			c-7.1,2-4.5,2.7-4.5,2.7L2,32.5c-1.1,1-2.2,2.8-2,6.4c0.4,6.8,4,7.3,4,7.3l25.1,8.2l37.9-9.2c0,0,2.5-0.7-4.5-2.7
			c-0.3-2.1-0.3-5.8,1.6-7c0,0,0.1-0.1,0.1-0.1c1.6-0.5,2.7-1.2,1.8-2.2l-1.6-0.5c1.1-0.7,2.7-2.4,3-6.9c0.2-3.1-0.6-4.9-1.6-6
			l3.3-0.8C69.2,19.1,71.7,18.4,64.6,16.4L64.6,16.4z M32.9,16.3l6.4-1.3l21.5-4.4l3.2-0.7c-1,1.9-1,4.4-0.8,6.1
			c0,0.4,0.1,0.7,0.1,1l-3.5,0.9l-27.2,6.8L32.9,16.3z M5.5,23l3.2,0.7l20.7,4.3l1.8,0.4l5.4,1.1l0.3,8.3L9,30.7L6.2,30
			c0-0.3,0.1-0.6,0.1-1C6.5,27.4,6.6,24.9,5.5,23L5.5,23z M4.3,12.5c0-1.8,0.3-3.1,0.9-3.8c0.4-0.4,0.9-0.5,1.2-0.5
			c0.2,0,0.3,0,0.3,0l16.5,5.4l8.2,2.7l-0.3,8.4L8.2,18.1L7,17.8c0,0-0.1,0-0.2,0C6.7,17.8,4.4,17.6,4.3,12.5L4.3,12.5z M29.2,50.7
			L4.8,43.9c0,0-0.1,0-0.2,0c-0.1,0-2.4-0.2-2.5-5.3c0-1.8,0.3-3.1,0.9-3.8c0.4-0.4,0.9-0.5,1.2-0.5c0.2,0,0.3,0,0.3,0c0,0,0,0,0,0
			l24.8,8.1L29.2,50.7z M61.1,42.1c0,0.4,0.1,0.7,0.1,1l-30.7,7.6l0.3-8.3l6.6-1.4l1,0.2l3.6-1.2l16.8-3.4l3.2-0.7
			C60.9,37.9,61,40.5,61.1,42.1L61.1,42.1z M62.8,30.8c-0.1,0-0.1,0-0.2,0l-2.3,0.7l-22.1,6.2L38,29.3l7.2-2.4l17.5-5.7
			c0,0,0.9-0.2,1.6,0.5c0.7,0.7,1,2,0.9,3.8C65.2,30.6,62.9,30.8,62.8,30.8L62.8,30.8z M62.8,30.8"/>
	</g>
</g>
</svg>
