<?xml version="1.0" encoding="utf-8"?>
<!-- Generator: Adobe Illustrator 19.0.0, SVG Export Plug-In . SVG Version: 6.00 Build 0)  -->
<svg version="1.1" id="Camada_1" xmlns="http://www.w3.org/2000/svg" xmlns:xlink="http://www.w3.org/1999/xlink" x="0px" y="0px"
	 viewBox="0 0 70 66" style="enable-background:new 0 0 70 66;" xml:space="preserve">
<style type="text/css">
	.st0{fill:#E3388C;}
</style>
<g>
	<path class="st0" d="M9.9,20c-0.5,0-1-0.2-1.4-0.7c-0.6-0.8-0.4-1.8,0.4-2.4l9.5-7c0.8-0.6,1.8-0.4,2.4,0.4
		c0.6,0.8,0.4,1.8-0.4,2.4l-9.5,7C10.6,19.9,10.3,20,9.9,20L9.9,20z M9.9,20"/>
	<path class="st0" d="M10.9,29c-0.5,0-1.1-0.3-1.4-0.7c-0.5-0.8-0.4-1.8,0.4-2.4l20.3-14.4c0.8-0.5,1.8-0.4,2.4,0.4
		c0.5,0.8,0.4,1.8-0.4,2.4L11.9,28.7C11.6,28.9,11.2,29,10.9,29L10.9,29z M10.9,29"/>
	<path class="st0" d="M67.1,0H2.9C1.3,0,0,1.3,0,2.9v49.5c0,1.6,1.3,2.9,2.9,2.9h23.5c0,0,0.8-0.1,0.8,0.8v4.3c0,0.4,0,0.7-0.5,0.7
		h-6.1c-1.3,0-2.4,1.1-2.4,2.4c0,1.3,1.1,2.4,2.4,2.4h28.9c1.3,0,2.4-1.1,2.4-2.4c0-1.3-1.1-2.4-2.4-2.4h-6.2
		c-0.4,0-0.5-0.2-0.5-0.5v-4.7c0-0.6,0.6-0.6,0.6-0.6h23.7c1.6,0,2.9-1.3,2.9-2.9V2.9C70,1.3,68.7,0,67.1,0L67.1,0z M38,56v4.4
		c0,0.2-0.1,0.5-0.5,0.5h-5C32,61,32,60.8,32,60.4v-4.3c0-0.6,0.8-0.7,0.8-0.7h4.6C37.3,55.4,38,55.4,38,56L38,56z M35,52.1
		c-1.6,0-2.8-1.3-2.8-2.8c0-1.6,1.3-2.8,2.8-2.8c1.6,0,2.8,1.3,2.8,2.8C37.8,50.8,36.6,52.1,35,52.1L35,52.1z M65.8,41.2
		c0,1.6-1.3,2.9-2.9,2.9H7.1c-1.6,0-2.9-1.3-2.9-2.9V7.6c0-1.6,1.3-2.9,2.9-2.9h55.8c1.6,0,2.9,1.3,2.9,2.9V41.2z M65.8,41.2"/>
</g>
</svg>
